<svg
        xmlns:dc="http://purl.org/dc/elements/1.1/"
        xmlns:cc="http://creativecommons.org/ns#"
        xmlns:rdf="http://www.w3.org/1999/02/22-rdf-syntax-ns#"
        xmlns:svg="http://www.w3.org/2000/svg"
        xmlns="http://www.w3.org/2000/svg"
        xmlns:xlink="http://www.w3.org/1999/xlink"
        xmlns:sodipodi="http://sodipodi.sourceforge.net/DTD/sodipodi-0.dtd"
        xmlns:inkscape="http://www.inkscape.org/namespaces/inkscape"
        width="800"
        height="600"
        viewBox="0 0 35.811355 26.553066"
        version="1.1"
        id="svg1021"
        inkscape:version="1.0.2 (1.0.2+r75+1)"
        transform="scale(-1,1)"
        sodipodi:docname="castle.svg">
  <defs
          id="defs1015">
    <linearGradient
            id="linearGradient2338">
      <stop
              id="stop2340"
              stop-color="#b1b1b1"
              offset="0"/>
      <stop
              id="stop2342"
              stop-color="#e4e4e4"
              offset="1"/>
    </linearGradient>
    <linearGradient
            id="linearGradient2320">
      <stop
              id="stop2322"
              stop-color="#6a3c1d"
              offset="0"/>
      <stop
              id="stop2324"
              stop-color="#8f5127"
              offset="1"/>
    </linearGradient>
    <linearGradient
            id="linearGradient2508"
            x1="17.062"
            xlink:href="#linearGradient2338"
            gradientUnits="userSpaceOnUse"
            y1="81.460999"
            gradientTransform="translate(2.7676)"
            x2="31.677999"
            y2="98.950996"/>
    <linearGradient
            id="linearGradient2546"
            x1="18.062"
            xlink:href="#linearGradient2338"
            gradientUnits="userSpaceOnUse"
            y1="55.812"
            gradientTransform="translate(2.7676)"
            x2="28.25"
            y2="60.5"/>
    <linearGradient
            id="linearGradient2548"
            x1="21.625"
            xlink:href="#linearGradient2338"
            gradientUnits="userSpaceOnUse"
            y1="64.75"
            gradientTransform="translate(2.7676)"
            x2="27.5"
            y2="58.938"/>
    <linearGradient
            id="linearGradient2550"
            x1="15.438"
            xlink:href="#linearGradient2338"
            gradientUnits="userSpaceOnUse"
            y1="62.938"
            gradientTransform="translate(2.7676)"
            x2="16.25"
            y2="60.188"/>
    <linearGradient
            id="linearGradient2552"
            x1="17.875"
            xlink:href="#linearGradient2338"
            gradientUnits="userSpaceOnUse"
            y1="65.344002"
            gradientTransform="translate(2.7676)"
            x2="20.062"
            y2="63.655998"/>
    <linearGradient
            id="linearGradient2554"
            x1="21.625"
            xlink:href="#linearGradient2338"
            gradientUnits="userSpaceOnUse"
            y1="66.980003"
            gradientTransform="translate(2.7676)"
            x2="20.875"
            y2="64.75"/>
    <linearGradient
            id="linearGradient2556"
            x1="23.375"
            xlink:href="#linearGradient2338"
            gradientUnits="userSpaceOnUse"
            y1="64.030998"
            gradientTransform="translate(2.7676)"
            x2="24.438"
            y2="66.030998"/>
    <linearGradient
            id="linearGradient2558"
            x1="27.438"
            xlink:href="#linearGradient2338"
            gradientUnits="userSpaceOnUse"
            y1="63.780998"
            gradientTransform="translate(2.7676)"
            x2="26"
            y2="60.780998"/>
    <linearGradient
            id="linearGradient2560"
            x1="31.625"
            xlink:href="#linearGradient2338"
            gradientUnits="userSpaceOnUse"
            y1="65.561996"
            gradientTransform="translate(2.7676)"
            x2="30.875"
            y2="61.812"/>
    <linearGradient
            id="linearGradient2562"
            x1="32.062"
            xlink:href="#linearGradient2338"
            gradientUnits="userSpaceOnUse"
            y1="59.844002"
            gradientTransform="translate(2.7676)"
            x2="34.375"
            y2="60.405998"/>
    <linearGradient
            id="linearGradient2564"
            x1="33.75"
            xlink:href="#linearGradient2338"
            gradientUnits="userSpaceOnUse"
            y1="58.780998"
            gradientTransform="translate(2.7676)"
            x2="30.875"
            y2="55.405998"/>
    <linearGradient
            id="linearGradient2566"
            x1="28.625"
            xlink:href="#linearGradient2338"
            gradientUnits="userSpaceOnUse"
            y1="57.562"
            gradientTransform="translate(2.7676)"
            x2="28.219"
            y2="55.438"/>
    <linearGradient
            id="linearGradient2568"
            x1="23.969"
            xlink:href="#linearGradient2338"
            gradientUnits="userSpaceOnUse"
            y1="54.688"
            gradientTransform="translate(2.7676)"
            x2="23.969"
            y2="52.219002"/>
    <linearGradient
            id="linearGradient2570"
            x1="20.562"
            xlink:href="#linearGradient2338"
            gradientUnits="userSpaceOnUse"
            y1="53.812"
            gradientTransform="translate(2.7676)"
            x2="22.125"
            y2="55.312"/>
    <linearGradient
            id="linearGradient2572"
            x1="19.562"
            xlink:href="#linearGradient2338"
            gradientUnits="userSpaceOnUse"
            y1="57.312"
            gradientTransform="translate(2.7676)"
            x2="20.438"
            y2="55"/>
    <linearGradient
            id="linearGradient2574"
            x1="15"
            xlink:href="#linearGradient2338"
            gradientUnits="userSpaceOnUse"
            y1="57.125"
            gradientTransform="translate(2.7676)"
            x2="17.188"
            y2="53.562"/>
    <linearGradient
            id="linearGradient2576"
            x1="12.75"
            xlink:href="#linearGradient2338"
            gradientUnits="userSpaceOnUse"
            y1="57.094002"
            gradientTransform="translate(2.7676)"
            x2="14.625"
            y2="58.655998"/>
    <linearGradient
            id="linearGradient2578"
            x1="12.562"
            xlink:href="#linearGradient2338"
            gradientUnits="userSpaceOnUse"
            y1="61.030998"
            gradientTransform="translate(2.7676)"
            x2="14.625"
            y2="59"/>
    <linearGradient
            id="linearGradient2580"
            x1="20.875"
            xlink:href="#linearGradient2338"
            gradientUnits="userSpaceOnUse"
            y1="65.561996"
            gradientTransform="translate(2.7676)"
            x2="28"
            y2="72.625"/>
    <linearGradient
            id="linearGradient3227"
            x1="17.062"
            xlink:href="#linearGradient2338"
            gradientUnits="userSpaceOnUse"
            y1="81.460999"
            gradientTransform="translate(88.224,-28.447)"
            x2="31.677999"
            y2="98.950996"/>
    <linearGradient
            id="linearGradient3229"
            x1="20.875"
            xlink:href="#linearGradient2338"
            gradientUnits="userSpaceOnUse"
            y1="65.561996"
            gradientTransform="translate(88.224,-28.447)"
            x2="28"
            y2="72.625"/>
    <linearGradient
            id="linearGradient3231"
            x1="12.562"
            xlink:href="#linearGradient2338"
            gradientUnits="userSpaceOnUse"
            y1="61.030998"
            gradientTransform="translate(88.224,-28.447)"
            x2="14.625"
            y2="59"/>
    <linearGradient
            id="linearGradient3233"
            x1="12.75"
            xlink:href="#linearGradient2338"
            gradientUnits="userSpaceOnUse"
            y1="57.094002"
            gradientTransform="translate(88.224,-28.447)"
            x2="14.625"
            y2="58.655998"/>
    <linearGradient
            id="linearGradient3235"
            x1="15"
            xlink:href="#linearGradient2338"
            gradientUnits="userSpaceOnUse"
            y1="57.125"
            gradientTransform="translate(88.224,-28.447)"
            x2="17.188"
            y2="53.562"/>
    <linearGradient
            id="linearGradient3237"
            x1="19.562"
            xlink:href="#linearGradient2338"
            gradientUnits="userSpaceOnUse"
            y1="57.312"
            gradientTransform="translate(88.224,-28.447)"
            x2="20.438"
            y2="55"/>
    <linearGradient
            id="linearGradient3239"
            x1="20.562"
            xlink:href="#linearGradient2338"
            gradientUnits="userSpaceOnUse"
            y1="53.812"
            gradientTransform="translate(88.224,-28.447)"
            x2="22.125"
            y2="55.312"/>
    <linearGradient
            id="linearGradient3241"
            x1="23.969"
            xlink:href="#linearGradient2338"
            gradientUnits="userSpaceOnUse"
            y1="54.688"
            gradientTransform="translate(88.224,-28.447)"
            x2="23.969"
            y2="52.219002"/>
    <linearGradient
            id="linearGradient3243"
            x1="28.625"
            xlink:href="#linearGradient2338"
            gradientUnits="userSpaceOnUse"
            y1="57.562"
            gradientTransform="translate(88.224,-28.447)"
            x2="28.219"
            y2="55.438"/>
    <linearGradient
            id="linearGradient3245"
            x1="33.75"
            xlink:href="#linearGradient2338"
            gradientUnits="userSpaceOnUse"
            y1="58.780998"
            gradientTransform="translate(88.224,-28.447)"
            x2="30.875"
            y2="55.405998"/>
    <linearGradient
            id="linearGradient3247"
            x1="32.062"
            xlink:href="#linearGradient2338"
            gradientUnits="userSpaceOnUse"
            y1="59.844002"
            gradientTransform="translate(88.224,-28.447)"
            x2="34.375"
            y2="60.405998"/>
    <linearGradient
            id="linearGradient3249"
            x1="31.625"
            xlink:href="#linearGradient2338"
            gradientUnits="userSpaceOnUse"
            y1="65.561996"
            gradientTransform="translate(88.224,-28.447)"
            x2="30.875"
            y2="61.812"/>
    <linearGradient
            id="linearGradient3251"
            x1="27.438"
            xlink:href="#linearGradient2338"
            gradientUnits="userSpaceOnUse"
            y1="63.780998"
            gradientTransform="translate(88.224,-28.447)"
            x2="26"
            y2="60.780998"/>
    <linearGradient
            id="linearGradient3253"
            x1="23.375"
            xlink:href="#linearGradient2338"
            gradientUnits="userSpaceOnUse"
            y1="64.030998"
            gradientTransform="translate(88.224,-28.447)"
            x2="24.438"
            y2="66.030998"/>
    <linearGradient
            id="linearGradient3255"
            x1="21.625"
            xlink:href="#linearGradient2338"
            gradientUnits="userSpaceOnUse"
            y1="66.980003"
            gradientTransform="translate(88.224,-28.447)"
            x2="20.875"
            y2="64.75"/>
    <linearGradient
            id="linearGradient3257"
            x1="17.875"
            xlink:href="#linearGradient2338"
            gradientUnits="userSpaceOnUse"
            y1="65.344002"
            gradientTransform="translate(88.224,-28.447)"
            x2="20.062"
            y2="63.655998"/>
    <linearGradient
            id="linearGradient3259"
            x1="15.438"
            xlink:href="#linearGradient2338"
            gradientUnits="userSpaceOnUse"
            y1="62.938"
            gradientTransform="translate(88.224,-28.447)"
            x2="16.25"
            y2="60.188"/>
    <linearGradient
            id="linearGradient3261"
            x1="21.625"
            xlink:href="#linearGradient2338"
            gradientUnits="userSpaceOnUse"
            y1="64.75"
            gradientTransform="translate(88.224,-28.447)"
            x2="27.5"
            y2="58.938"/>
    <linearGradient
            id="linearGradient3263"
            x1="18.062"
            xlink:href="#linearGradient2338"
            gradientUnits="userSpaceOnUse"
            y1="55.812"
            gradientTransform="translate(88.224,-28.447)"
            x2="28.25"
            y2="60.5"/>
    <linearGradient
            id="linearGradient3269"
            x1="44.527"
            xlink:href="#linearGradient2338"
            gradientUnits="userSpaceOnUse"
            y1="104.48"
            gradientTransform="translate(2.7676)"
            x2="97.831001"
            y2="61.624001"/>
    <linearGradient
            id="linearGradient3273"
            x1="83.394356"
            xlink:href="#linearGradient2338"
            gradientUnits="userSpaceOnUse"
            y1="74.459862"
            gradientTransform="translate(2.7676)"
            x2="83.906998"
            y2="89.031998"/>
    <linearGradient
            id="linearGradient3281"
            x1="68.495003"
            xlink:href="#linearGradient2320"
            gradientUnits="userSpaceOnUse"
            y1="77.264999"
            gradientTransform="translate(2.7676)"
            x2="68.809998"
            y2="78.319"/>
    <linearGradient
            id="linearGradient3285"
            x1="68.583"
            xlink:href="#linearGradient2320"
            gradientUnits="userSpaceOnUse"
            y1="77.615997"
            gradientTransform="translate(2.8115,3.4248)"
            x2="68.809998"
            y2="78.319"/>
    <linearGradient
            id="linearGradient3289"
            x1="68.539001"
            xlink:href="#linearGradient2320"
            gradientUnits="userSpaceOnUse"
            y1="77.441002"
            gradientTransform="translate(2.8554,7.6838)"
            x2="68.809998"
            y2="78.319"/>
    <linearGradient
            id="linearGradient3293"
            x1="68.495003"
            xlink:href="#linearGradient2320"
            gradientUnits="userSpaceOnUse"
            y1="77.660004"
            gradientTransform="translate(2.9432,11.679)"
            x2="68.809998"
            y2="78.625999"/>
    <linearGradient
            id="linearGradient3297"
            x1="68.539001"
            xlink:href="#linearGradient2320"
            gradientUnits="userSpaceOnUse"
            y1="77.572998"
            gradientTransform="translate(3.0749,15.675)"
            x2="68.809998"
            y2="78.319"/>
    <linearGradient
            id="linearGradient3301"
            x1="59.055"
            xlink:href="#linearGradient2320"
            gradientUnits="userSpaceOnUse"
            y1="89.448997"
            gradientTransform="translate(2.7676)"
            x2="59.515999"
            y2="89.448997"/>
    <linearGradient
            id="linearGradient3305"
            x1="59.055"
            xlink:href="#linearGradient2320"
            gradientUnits="userSpaceOnUse"
            y1="89.448997"
            gradientTransform="translate(8.739,-2.2393)"
            x2="59.515999"
            y2="89.448997"/>
    <linearGradient
            id="linearGradient3309"
            x1="59.055"
            xlink:href="#linearGradient2320"
            gradientUnits="userSpaceOnUse"
            y1="89.448997"
            gradientTransform="translate(14.491,-4.4785)"
            x2="59.515999"
            y2="89.448997"/>
    <linearGradient
            id="linearGradient3313"
            x1="59.055"
            xlink:href="#linearGradient2320"
            gradientUnits="userSpaceOnUse"
            y1="89.448997"
            gradientTransform="translate(18.969,-5.664)"
            x2="59.515999"
            y2="89.448997"/>
    <linearGradient
            id="linearGradient3317"
            x1="59.055"
            xlink:href="#linearGradient2320"
            gradientUnits="userSpaceOnUse"
            y1="89.448997"
            gradientTransform="translate(24.326,-7.4642)"
            x2="59.515999"
            y2="89.448997"/>
    <linearGradient
            id="linearGradient3321"
            x1="66.910004"
            xlink:href="#linearGradient2338"
            gradientUnits="userSpaceOnUse"
            y1="63.765999"
            gradientTransform="translate(2.7676)"
            x2="68.014999"
            y2="66.860001"/>
    <linearGradient
            id="linearGradient3367"
            x1="97.758003"
            xlink:href="#linearGradient2338"
            gradientUnits="userSpaceOnUse"
            y1="53.488998"
            gradientTransform="translate(2.7676)"
            x2="100.41"
            y2="50.395"/>
    <linearGradient
            id="linearGradient3369"
            x1="97.581001"
            xlink:href="#linearGradient2338"
            gradientUnits="userSpaceOnUse"
            y1="54.240002"
            gradientTransform="translate(2.7676)"
            x2="98.818001"
            y2="56.229"/>
    <linearGradient
            id="linearGradient3371"
            x1="94.044998"
            xlink:href="#linearGradient2338"
            gradientUnits="userSpaceOnUse"
            y1="56.229"
            gradientTransform="translate(2.7676)"
            x2="95.901001"
            y2="54.019001"/>
    <linearGradient
            id="linearGradient3373"
            x1="88.741997"
            xlink:href="#linearGradient2338"
            gradientUnits="userSpaceOnUse"
            y1="56.847"
            gradientTransform="translate(2.7676)"
            x2="92.277"
            y2="53.134998"/>
    <linearGradient
            id="linearGradient3375"
            x1="87.858002"
            xlink:href="#linearGradient2338"
            gradientUnits="userSpaceOnUse"
            y1="57.023998"
            gradientTransform="translate(2.7676)"
            x2="89.183998"
            y2="58.703999"/>
    <linearGradient
            id="linearGradient3377"
            x1="85.117996"
            xlink:href="#linearGradient2338"
            gradientUnits="userSpaceOnUse"
            y1="58.615002"
            gradientTransform="translate(2.7676)"
            x2="85.824997"
            y2="56.582001"/>
    <linearGradient
            id="linearGradient3379"
            x1="80.610001"
            xlink:href="#linearGradient2338"
            gradientUnits="userSpaceOnUse"
            y1="59.234001"
            gradientTransform="translate(2.7676)"
            x2="82.466003"
            y2="56.317001"/>
    <linearGradient
            id="linearGradient3381"
            x1="79.063004"
            xlink:href="#linearGradient2338"
            gradientUnits="userSpaceOnUse"
            y1="59.853001"
            gradientTransform="translate(2.7676)"
            x2="80.432999"
            y2="61.886002"/>
    <linearGradient
            id="linearGradient3383"
            x1="76.191002"
            xlink:href="#linearGradient2338"
            gradientUnits="userSpaceOnUse"
            y1="63.035"
            gradientTransform="translate(2.7676)"
            x2="77.339996"
            y2="60.560001"/>
    <linearGradient
            id="linearGradient3385"
            x1="70.710999"
            xlink:href="#linearGradient2338"
            gradientUnits="userSpaceOnUse"
            y1="61.973999"
            gradientTransform="translate(2.7676)"
            x2="72.523003"
            y2="59.321999"/>
    <linearGradient
            id="linearGradient3387"
            x1="70.578003"
            xlink:href="#linearGradient2338"
            gradientUnits="userSpaceOnUse"
            y1="62.548"
            gradientTransform="translate(2.7676)"
            x2="72.037003"
            y2="64.360001"/>
    <linearGradient
            id="linearGradient3389"
            x1="67.086998"
            xlink:href="#linearGradient2338"
            gradientUnits="userSpaceOnUse"
            y1="64.051003"
            gradientTransform="translate(2.7676)"
            x2="67.971001"
            y2="63.035"/>
    <linearGradient
            id="linearGradient3391"
            x1="63.374001"
            xlink:href="#linearGradient2338"
            gradientUnits="userSpaceOnUse"
            y1="64.360001"
            gradientTransform="translate(2.7676)"
            x2="63.993"
            y2="61.797001"/>
    <linearGradient
            id="linearGradient3393"
            x1="61.916"
            xlink:href="#linearGradient2338"
            gradientUnits="userSpaceOnUse"
            y1="64.890999"
            gradientTransform="translate(2.7676)"
            x2="63.374001"
            y2="66.57"/>
    <linearGradient
            id="linearGradient3395"
            x1="57.894001"
            xlink:href="#linearGradient2338"
            gradientUnits="userSpaceOnUse"
            y1="66.791"
            gradientTransform="translate(2.7676)"
            x2="60.633999"
            y2="65.420998"/>
    <linearGradient
            id="linearGradient3397"
            x1="54.005001"
            xlink:href="#linearGradient2338"
            gradientUnits="userSpaceOnUse"
            y1="67.056"
            gradientTransform="translate(2.7676)"
            x2="54.624001"
            y2="64.802002"/>
    <linearGradient
            id="linearGradient3399"
            x1="52.634998"
            xlink:href="#linearGradient2338"
            gradientUnits="userSpaceOnUse"
            y1="67.940002"
            gradientTransform="translate(2.7676)"
            x2="54.094002"
            y2="69.574997"/>
    <linearGradient
            id="linearGradient3401"
            x1="47.905998"
            xlink:href="#linearGradient2338"
            gradientUnits="userSpaceOnUse"
            y1="69.708"
            gradientTransform="translate(2.7676)"
            x2="50.911999"
            y2="68.337997"/>
    <linearGradient
            id="linearGradient3403"
            x1="43.133999"
            xlink:href="#linearGradient2338"
            gradientUnits="userSpaceOnUse"
            y1="69.929001"
            gradientTransform="translate(2.7676)"
            x2="46.757"
            y2="67.365997"/>
    <linearGradient
            id="linearGradient3405"
            x1="42.514999"
            xlink:href="#linearGradient2338"
            gradientUnits="userSpaceOnUse"
            y1="70.68"
            gradientTransform="translate(2.7676)"
            x2="43.487"
            y2="72.005997"/>
    <linearGradient
            id="linearGradient3407"
            x1="38.890999"
            xlink:href="#linearGradient2338"
            gradientUnits="userSpaceOnUse"
            y1="73.288002"
            gradientTransform="translate(2.7676)"
            x2="40.393002"
            y2="70.901001"/>
    <linearGradient
            id="linearGradient3409"
            x1="33.321999"
            xlink:href="#linearGradient2338"
            gradientUnits="userSpaceOnUse"
            y1="71.961998"
            gradientTransform="translate(2.7676)"
            x2="35.223"
            y2="70.194"/>
    <filter
            id="filter3624"
            x="-0.033720317"
            y="-0.059514674"
            width="1.0674406"
            height="1.1190293">
      <feGaussianBlur
              id="feGaussianBlur3626"
              stdDeviation="1.6110465"/>
    </filter>
    <linearGradient
            id="linearGradient3273-6"
            x1="80.042999"
            xlink:href="#linearGradient2338"
            gradientUnits="userSpaceOnUse"
            y1="74.192001"
            gradientTransform="translate(2.7676)"
            x2="83.906998"
            y2="89.031998"/>
    <filter
            id="filter3624-8"
            x="-0.014676452"
            y="-0.38898516"
            width="1.0659301"
            height="1.461174">
      <feGaussianBlur
              id="feGaussianBlur3626-0"
              stdDeviation="1.6110465"/>
    </filter>
  </defs>
  <sodipodi:namedview
          id="base"
          pagecolor="#ffffff"
          bordercolor="#666666"
          borderopacity="1.0"
          inkscape:pageopacity="0.0"
          inkscape:pageshadow="2"
          inkscape:zoom="0.64"
          inkscape:cx="154.80727"
          inkscape:cy="33.716965"
          inkscape:document-units="mm"
          inkscape:current-layer="layer4"
          inkscape:document-rotation="0"
          showgrid="false"
          inkscape:window-width="1920"
          inkscape:window-height="1145"
          inkscape:window-x="0"
          inkscape:window-y="27"
          inkscape:window-maximized="1"
          fit-margin-top="0"
          fit-margin-left="0"
          fit-margin-right="0"
          fit-margin-bottom="0"
          inkscape:pagecheckerboard="0"/>
  <metadata
          id="metadata1018">
    <rdf:RDF>
      <cc:Work
              rdf:about="">
        <dc:format>image/svg+xml</dc:format>
        <dc:type
                rdf:resource="http://purl.org/dc/dcmitype/StillImage"/>
      </cc:Work>
    </rdf:RDF>
  </metadata>
  <g
          inkscape:label="Castle"
          inkscape:groupmode="layer"
          id="layer1"
          transform="translate(-55.511654,-38.225139)">
    <g
            id="layer2"
            fill-rule="evenodd"
            transform="matrix(0.26458333,0,0,0.26458333,55.057889,32.325415)">
      <path
              id="path3411"
              filter="url(#filter3624)"
              fill-opacity="0.73059"
              d="m 98.996,48.055 c 1.794,0.817 2.494,2.739 0.697,0.567 -3.007,-0.767 3.137,2.942 -0.669,1.116 -2.073,1.061 -0.501,1.303 -2.128,0.239 -0.454,-2.683 -9.301,2.435 -2.999,1.044 -0.748,1.161 0.292,2.558 -0.693,0.734 -4.538,-1.545 -0.004,3.51 -1.725,2.938 -1.3,2.729 3.391,3.933 3.889,6.209 0.392,2.092 2.01,4.415 -1.809,5.301 3.058,0.208 -1.765,0.029 0.368,1.568 1.684,1.275 -5.108,-1.349 -6.798,0.193 -2.858,0.537 -3.256,1.935 -4.021,2.862 -2.698,-1.377 -9.51,0.986 -6.893,1.126 -1.199205,2.086006 -5.725662,2.484634 -5.876,2.742 -2.809,0.526 5.798,-1.348 0.528,-1.511 -2.777,0.297 -4.882,1.233 -4.97,2.773 -2.33,-0.274 -7.745,-0.207 -7.662,0.92 2.27,1.099 8.752,-1.375 3.19,0.241 -1.782,0.152 -5.783,-0.409 -2.646,1.135 4.114,0.287 -2.998,0.042 -4.233,0.392 -4.98,-0.946 -5.884,2.031 -5.224,1.222 -3.609,0.825 5.167,2.141 -0.515,1.239 -3.873,0.407 -7.875,2.356 -11.409,1.72 0.345,1.517 3.641,1.113 -0.081,1.076 -2.178,0.453 -7.326,2.462 -7.18,1.791 2.376,0.146 6.652,-1.976 1.545,-1.681 -4.596,1.52 0.829,-2.154 -1.433,-3.457 -0.392,-2.032 -1.669,-6.998 -6.575,-5.136 1.553,2.001 -4.363,0.954 -0.041,1.177 0.033,-1.563 -5.468,-0.557 -3.271,-1.84 -1.733,-0.798 -8.54,-0.528 -4.788,1.341 1.211,1.303 -3.09,-2.968 -1.382,0.004 2.227,1.751 1.578,0.32 -1.062,0.466 -1.281,1.516 0.554,0.683 -1.352,-0.023 0.521,0.363 -2.1952,-1.638 -3.795,-0.003 -3.2306,0.837 -0.6877,1.763 0.7827,1.496 -0.6205,1.766 0.4897,1.305 -1.0963,0.106 -4.1294,-0.382 0.5392,3.202 -1.2913,3.378 -1.1644,3.114 4.7289,4.152 4.1419,7.098 1.607,7.424 3.215,14.852 4.822,22.272 5.607,2.12 13.273,2.41 18.969,0.11 4.215,-1.61 4.933,-4.48 10.347,-5.22 4.912,-1.6 7.374,-4.27 12.375,-5.77 6.593593,-2.726655 27.135145,-6.476447 33.165,-11.316 6.311,-1.441 9.526,-6.011 16.532,-5.175 5.28,0.045 11.08,-1.418 13.84,-4.09 -2.84,-8.167 -3.1,-13.859 -6.05,-22.017 2.91,-2.207 -0.19,-4.995 -0.55,-7.41 -0.59,-2.163 -7.03,-2.454 -5.04,0.208 -4.47,-0.661 1.7,0.419 -0.71,-1.039 -2.03,-0.432 -4.33,-0.098 -2.58,-0.994 -1.75,-1.196 -4.46,-0.01 -6.644,-0.122 z m -53.82,33.602 c -2.115,-1.661 -10.629,1.285 -4.23,1.074 z M 101.83,48.745 c 1.4,-0.04 -3.222,0.597 0,0 z m -2.07,2.06 -1.035,0.192 z m 11.37,-0.823 c 0.75,0.431 0.22,1.02 0,0 z m -9.26,1.116 c 2.45,-0.329 -4.19,1.026 0,0 z m 2.94,-0.265 1.11,-0.051 z m 4.32,0.358 c 1.2,0.183 1.59,0.616 0,0 z m -11.449,1.264 c -0.65,0.552 -2.781,1.32 -0.823,0.362 z m 13.909,-1.203 c 0.61,0.894 -0.32,1.144 0,0 z m -17.646,2.12 c -1.709,0.585 -2.024,0.501 0,0 z m 16.236,-1.601 c 1.16,0.962 0.45,0.744 0,0 z m -14.979,1.863 0.905,0.189 z m 16.019,-0.91 c 0.3,0.993 -1.66,0.909 0.11,0.215 z m -17.846,1.885 c 2.401,1.396 8.196,-1.581 4.073,0.658 -1.205,-0.571 -2.919,0.011 -4.073,-0.658 z m 4.444,0.287 -0.353,0.063 z m 5.822,-1.31 c 1.01,0.903 1.68,1.308 0.15,0.236 -0.11,1.628 0.04,1.006 -0.15,-0.236 z m -3.39,1.903 c 4.77,-0.379 -5.476,0.937 0.02,1.27 -3.958,0.408 -2.059,-0.402 -0.02,-1.27 z m 3.52,-0.226 c 0.31,0.307 -0.72,-0.007 0,0 z m 0.37,0.354 c 0.92,0.69 0.27,1.544 0,0 z m -2.42,4.317 c 3.49,-0.167 4.03,0.13 0,0 z m -5.399,6.747 c -0.058,0.26 -0.583,-0.108 0,0 z m -79.564,8.742 c 1.406,-0.04 -3.218,0.597 0,0 z m 74.705,-7.237 -0.61,0.214 z m 0.009,0.156 c 0.359,1.223 0.303,2.176 0,0 z m 4.975,0.251 c -1.708,0.538 -2.468,0.64 0,0 z m -9.768,1.247 c 2.827,1.854 -6.48,2.835 -0.295,1.452 1.091,-0.228 -0.162,-0.997 0.295,-1.452 z m -71.987,7.643 -1.034,0.192 z M 26.064,76.66 c 0.747,0.43 0.214,1.02 0,0 z m -9.263,1.116 c 2.452,-0.329 -4.19,1.026 0,0 z m 65.7,-6.777 c 0.53,0.338 1.247,1.237 0.34,0.359 z M 19.738,77.511 20.85,77.46 Z m 57.835,-5.256 0.049,0.027 z m -53.507,5.614 c 1.197,0.182 1.583,0.616 0,0 z m -11.454,1.263 c -0.65,0.552 -2.7811,1.32 -0.823,0.363 z m 13.906,-1.203 c 0.609,0.895 -0.313,1.145 0,0 z m -17.643,2.12 c -1.7089,0.586 -2.0245,0.502 0,0 z m 16.231,-1.6 c 1.162,0.962 0.452,0.744 0,0 z m -14.974,1.863 0.905,0.188 z m 16.017,-0.91 c 0.299,0.993 -1.66,0.909 0.112,0.215 z M 8.306,81.287 c 2.4004,1.396 8.1994,-1.581 4.0724,0.658 -1.205,-0.571 -2.9188,0.01 -4.0724,-0.658 z m 4.4434,0.287 -0.352,0.063 z m 5.826,-1.31 c 1.004,0.902 1.677,1.308 0.147,0.236 -0.108,1.628 0.041,1.006 -0.147,-0.236 z m 49.481,-4.156 c 4.584,0.293 -6.088,1.561 -0.931,0.764 1.173,-0.24 3.956,-0.587 0.931,-0.764 z m -52.876,6.059 c 4.775,-0.379 -5.4748,0.937 0.026,1.27 -3.963,0.408 -2.064,-0.402 -0.026,-1.27 z m 3.522,-0.227 c 0.306,0.308 -0.717,-0.006 0,0 z m 0.369,0.355 c 1.01,0.856 0.031,1.395 0,0 z m 36.198,-3.391 c -1.851,0.654 -6.204,2.568 -2.442,0.638 0.957,0.028 1.614,-0.448 2.442,-0.638 z m -7.325,3.587 c -1.417,0.434 -2.667,0.665 0,0 z m -7.113,1.305 c 1.016,1.672 -9.338,2.525 -2.546,1.207 0.889,-0.271 3.312,-0.312 2.546,-1.207 z m -24.049,2.802 c 3.085,-0.195 5.112,0.177 0,0 z m 34.715,-3.493 c -6.65,2.037 -13.301,4.074 -19.951,6.111 1.085,3.029 2.964,8.213 3.555,9.903 -1.564,-4.139 -3.128,-8.278 -4.693,-12.418 -0.107,2.35 2.197,2.698 5.1,1.258 5.33,-1.618 10.659,-3.236 15.989,-4.854 z m 6.89,3.983 c -1.632,1.299 -2.376,1.734 0.495,1.478 -1.132,3.936 -5.116,-0.116 -0.495,-1.478 z m -1.805,3.487 c 7.78467,2.727592 -0.706557,2.685935 0.172,0.65 z m 1.481,5.552 c -23.7524,14.873 -88.718737,-72.767266 0,0 z"
              sodipodi:nodetypes="cccccccccccccccccccccccccccccccccccccccccccccccccccccccccccccccccccccccccccccccccccccccccccccccccccccccccccccccccccccccccccccccccccccccccccccccccccccccccccccccccccccccccccccccccccccccccccccccc"/>
      <path
              id="path2506"
              d="m 15.61,110.39 1.407,-40.487 2.568,1.284 6.055,1.345 4.036,-0.306 3.425,-0.917 2.385,-1.345 2.323,40.726 -3.485,2.63 -5.627,1.72 -4.831,-0.25 -4.281,-1.53 z"
              fill="url(#linearGradient2508)"
              style="fill:url(#linearGradient2508)"/>
      <path
              id="path2510"
              fill="url(#linearGradient2580)"
              d="m 14.768,61.562 -0.063,1.063 0.125,5.25 2.813,2.563 3.062,1.187 7.063,1 4.687,-0.813 3.063,-1.75 1.687,-1.937 -0.062,-5.687 -0.75,1.062 -2,1.938 -0.438,-2.5 -6.812,1.312 -0.188,2.812 -6.562,-0.562 0.062,-3 -3.125,-0.75 -1.625,-1.562 -0.25,1.187 z"
              style="fill:url(#linearGradient2580)"/>
      <path
              id="path2512"
              d="M 15.33,62.062 15.018,61.125 15.393,59 l 2.125,0.625 0.25,0.563 -1.938,0.5 z"
              fill="url(#linearGradient2578)"
              style="fill:url(#linearGradient2578)"/>
      <path
              id="path2514"
              d="m 17.393,59.625 -2.125,-0.5 -0.063,-2.563 2.188,0.75 z"
              fill="url(#linearGradient2576)"
              style="fill:url(#linearGradient2576)"/>
      <path
              id="path2516"
              d="m 17.518,57.125 -2,-0.75 0.562,-1.063 3.625,-1.75 1.75,1.563 -1.75,0.5 -1.375,0.875 z"
              fill="url(#linearGradient2574)"
              style="fill:url(#linearGradient2574)"/>
      <path
              id="path2518"
              d="m 21.768,55.812 1.75,-0.5 1.125,1.376 -0.5,0.374 -2.25,0.25 z"
              fill="url(#linearGradient2572)"
              style="fill:url(#linearGradient2572)"/>
      <path
              id="path2520"
              d="m 23.455,55.25 -0.125,-2.562 1.25,1.75 0.313,2.25 z"
              fill="url(#linearGradient2570)"
              style="fill:url(#linearGradient2570)"/>
      <path
              id="path2522"
              d="m 23.58,52.625 1.188,1.875 1.25,-0.312 3.875,0.5 -1.063,-1.938 -4.5,-0.062 -0.437,-0.063 z"
              fill="url(#linearGradient2568)"
              style="fill:url(#linearGradient2568)"/>
      <path
              id="path2524"
              d="m 29.955,55.625 1,-0.187 1.188,0.5 -0.063,1.624 -2.25,-1.062 z"
              fill="url(#linearGradient2566)"
              style="fill:url(#linearGradient2566)"/>
      <path
              id="path2526"
              d="m 32.393,55.125 1.75,-0.687 1.5,1.25 1,1.562 0.5,2 h -2.875 l 0.312,-0.938 -0.562,-1.187 z"
              fill="url(#linearGradient2564)"
              style="fill:url(#linearGradient2564)"/>
      <path
              id="path2528"
              d="m 34.393,59.062 v 2.25 l 2.75,0.438 -0.188,-2.562 z"
              fill="url(#linearGradient2562)"
              style="fill:url(#linearGradient2562)"/>
      <path
              id="path2530"
              d="M 34.455,61.312 33.643,62 l 0.312,0.875 0.375,2.687 1.375,-1.25 L 36.83,63 37.205,61.688 Z"
              fill="url(#linearGradient2560)"
              style="fill:url(#linearGradient2560)"/>
      <path
              id="path2532"
              d="m 32.83,60.312 1.063,2.5 -4.313,1.188 -2.375,0.125 -0.687,-2 2.187,-0.25 2.625,-0.813 z"
              fill="url(#linearGradient2558)"
              style="fill:url(#linearGradient2558)"/>
      <path
              id="path2534"
              d="M 26.518,62.312 27.205,64.188 26.955,67 26.143,64.875 Z"
              fill="url(#linearGradient2556)"
              style="fill:url(#linearGradient2556)"/>
      <path
              id="path2536"
              fill="url(#linearGradient2554)"
              d="m 26.268,65 0.437,1.938 c -2.229,0.177 -4.228,-0.223 -6.125,-0.876 l 2.188,-1.312 1.625,0.312 z"
              style="fill:url(#linearGradient2554)"/>
      <path
              id="path2538"
              d="m 20.268,66 2.562,-1.312 -0.25,-2.376 -2.062,1.126 z"
              fill="url(#linearGradient2552)"
              style="fill:url(#linearGradient2552)"/>
      <path
              id="path2540"
              fill="url(#linearGradient2550)"
              d="m 20.768,63.312 -1.813,-0.25 -1.437,-0.437 -1.375,-0.813 -0.438,-1 2.25,-0.624 0.875,0.874 2.25,0.938 1.25,0.312 -1.937,1.063 z"
              style="fill:url(#linearGradient2550)"/>
      <path
              id="path2542"
              d="m 19.205,60.75 2.875,-1.875 3.188,-0.813 2.062,-0.187 2.25,0.313 1.938,0.624 2.312,1.75 0.563,1 -0.813,0.563 -0.625,-1.75 -3.062,1.313 -3.438,0.5 -0.312,2.75 -0.688,0.187 -2.062,-0.313 -0.625,-0.187 -0.313,-2.25 -2,-0.563 L 18.83,61 Z"
              fill="url(#linearGradient2548)"
              style="fill:url(#linearGradient2548)"/>
      <path
              id="path2544"
              fill="url(#linearGradient2546)"
              d="m 18.893,61 -1.438,-0.812 0.125,-2.75 1.5,-1.688 2.563,-0.625 0.062,2.125 h 1.438 l 1.75,-0.5 -0.188,-2.25 2.25,-0.312 3,0.687 0.063,1.813 2.187,1 -0.062,-2.5 1.187,0.874 0.938,1.438 0.187,1.625 -0.187,1.937 -1.75,-1.624 -3.5,-1.438 -3.563,-0.062 -2.75,0.812 -2.625,1.188 z"
              style="fill:url(#linearGradient2546)"/>
      <path
              id="path2584"
              fill-opacity="0.15686"
              d="M 15.33,62.062 15.018,61.125 15.393,59 l 2.125,0.625 0.25,0.563 -1.938,0.5 z"/>
      <path
              id="path2586"
              fill-opacity="0.15686"
              d="m 17.393,59.625 -2.125,-0.5 -0.063,-2.563 2.188,0.75 z"/>
      <path
              id="path2588"
              fill-opacity="0.15686"
              d="m 23.455,55.25 -0.125,-2.562 1.25,1.75 0.313,2.25 z"/>
      <path
              id="path2590"
              fill-opacity="0.15686"
              d="m 34.393,59.062 v 2.25 l 2.75,0.438 -0.188,-2.562 z"/>
      <path
              id="path2592"
              fill-opacity="0.15686"
              d="m 18.893,61 -1.438,-0.812 0.125,-2.75 1.5,-1.688 2.563,-0.625 0.062,2.125 h 1.438 l 1.75,-0.5 -0.188,-2.25 2.25,-0.312 3,0.687 0.063,1.813 2.187,1 -0.062,-2.5 1.187,0.874 0.938,1.438 0.187,1.625 -0.187,1.937 -1.75,-1.624 -3.5,-1.438 -3.563,-0.062 -2.75,0.812 -2.625,1.188 z"/>
      <path
              id="path2582"
              fill-opacity="0.15686"
              d="m 14.768,61.562 -0.063,1.063 0.125,5.25 2.813,2.563 3.062,1.187 7.063,1 4.687,-0.813 3.063,-1.75 1.687,-1.937 -0.062,-5.687 -0.75,1.062 -2,1.938 -0.438,-2.5 -6.687,1.312 -0.313,2.812 -6.562,-0.562 0.062,-3 -3.125,-0.75 -1.625,-1.562 -0.25,1.187 z"/>
      <path
              id="path3172"
              fill="#d59163"
              d="M 29.705,89.812 34.518,88.562 34.08,86.312 33.143,83.875 31.58,81.5 30.393,83.625 29.643,86 v 1.625 z"/>
      <path
              id="path3174"
              d="m 101.07,81.94 1.4,-40.485 2.57,1.285 6.06,1.345 4.03,-0.306 3.43,-0.917 2.38,-1.346 2.33,40.73 -3.49,2.629 -5.63,1.713 -4.83,-0.245 -4.28,-1.529 z"
              fill="url(#linearGradient3227)"
              style="fill:url(#linearGradient3227)"/>
      <path
              id="path3176"
              fill="url(#linearGradient3229)"
              d="m 100.22,33.115 -0.06,1.063 0.13,5.25 2.81,2.562 3.06,1.188 7.06,1 4.69,-0.813 3.06,-1.75 1.69,-1.937 -0.06,-5.688 -0.75,1.063 -2,1.937 -0.44,-2.5 -6.81,1.313 -0.19,2.812 -6.56,-0.562 0.06,-3 -3.12,-0.75 -1.63,-1.563 -0.25,1.188 z"
              style="fill:url(#linearGradient3229)"/>
      <path
              id="path3178"
              d="m 100.79,33.615 -0.32,-0.937 0.38,-2.125 2.12,0.625 0.25,0.562 -1.93,0.5 z"
              fill="url(#linearGradient3231)"
              style="fill:url(#linearGradient3231)"/>
      <path
              id="path3180"
              d="m 102.85,31.178 -2.13,-0.5 -0.06,-2.563 2.19,0.75 z"
              fill="url(#linearGradient3233)"
              style="fill:url(#linearGradient3233)"/>
      <path
              id="path3182"
              d="m 102.97,28.678 -2,-0.75 0.57,-1.063 3.62,-1.75 1.75,1.563 -1.75,0.5 -1.37,0.875 z"
              fill="url(#linearGradient3235)"
              style="fill:url(#linearGradient3235)"/>
      <path
              id="path3184"
              d="m 107.22,27.365 1.75,-0.5 1.13,1.375 -0.5,0.375 -2.25,0.25 z"
              fill="url(#linearGradient3237)"
              style="fill:url(#linearGradient3237)"/>
      <path
              id="path3186"
              d="m 108.91,26.803 -0.12,-2.563 1.25,1.75 0.31,2.25 z"
              fill="url(#linearGradient3239)"
              style="fill:url(#linearGradient3239)"/>
      <path
              id="path3188"
              d="m 109.04,24.178 1.18,1.875 1.25,-0.313 3.88,0.5 -1.06,-1.937 -4.5,-0.063 -0.44,-0.062 z"
              fill="url(#linearGradient3241)"
              style="fill:url(#linearGradient3241)"/>
      <path
              id="path3190"
              d="m 115.41,27.178 1,-0.188 1.19,0.5 -0.06,1.625 -2.25,-1.062 z"
              fill="url(#linearGradient3243)"
              style="fill:url(#linearGradient3243)"/>
      <path
              id="path3192"
              d="m 117.85,26.678 1.75,-0.688 1.5,1.25 1,1.563 0.5,2 h -2.88 l 0.32,-0.938 -0.57,-1.187 z"
              fill="url(#linearGradient3245)"
              style="fill:url(#linearGradient3245)"/>
      <path
              id="path3194"
              d="m 119.85,30.615 v 2.25 l 2.75,0.438 -0.19,-2.563 z"
              fill="url(#linearGradient3247)"
              style="fill:url(#linearGradient3247)"/>
      <path
              id="path3196"
              d="m 119.91,32.865 -0.81,0.688 0.31,0.875 0.38,2.687 1.37,-1.25 1.13,-1.312 0.37,-1.313 z"
              fill="url(#linearGradient3249)"
              style="fill:url(#linearGradient3249)"/>
      <path
              id="path3198"
              d="m 118.29,31.865 1.06,2.5 -4.31,1.188 -2.38,0.125 -0.69,-2 2.19,-0.25 2.63,-0.813 z"
              fill="url(#linearGradient3251)"
              style="fill:url(#linearGradient3251)"/>
      <path
              id="path3200"
              d="m 111.97,33.865 0.69,1.875 -0.25,2.813 -0.81,-2.125 z"
              fill="url(#linearGradient3253)"
              style="fill:url(#linearGradient3253)"/>
      <path
              id="path3202"
              fill="url(#linearGradient3255)"
              d="m 111.72,36.553 0.44,1.937 c -2.23,0.178 -4.23,-0.222 -6.12,-0.875 l 2.18,-1.312 1.63,0.312 z"
              style="fill:url(#linearGradient3255)"/>
      <path
              id="path3204"
              d="m 105.72,37.553 2.57,-1.313 -0.25,-2.375 -2.07,1.125 z"
              fill="url(#linearGradient3257)"
              style="fill:url(#linearGradient3257)"/>
      <path
              id="path3206"
              fill="url(#linearGradient3259)"
              d="m 106.22,34.865 -1.81,-0.25 -1.44,-0.437 -1.37,-0.813 -0.44,-1 2.25,-0.625 0.88,0.875 2.25,0.938 1.25,0.312 -1.94,1.063 z"
              style="fill:url(#linearGradient3259)"/>
      <path
              id="path3208"
              d="m 104.66,32.303 2.88,-1.875 3.18,-0.813 2.07,-0.187 2.25,0.312 1.93,0.625 2.32,1.75 0.56,1 -0.81,0.563 -0.63,-1.75 -3.06,1.312 -3.44,0.5 -0.31,2.75 -0.69,0.188 -2.06,-0.313 -0.63,-0.187 -0.31,-2.25 -2,-0.563 -1.62,-0.812 z"
              fill="url(#linearGradient3261)"
              style="fill:url(#linearGradient3261)"/>
      <path
              id="path3210"
              fill="url(#linearGradient3263)"
              d="m 104.35,32.553 -1.44,-0.813 0.13,-2.75 1.5,-1.687 2.56,-0.625 0.06,2.125 h 1.44 l 1.75,-0.5 -0.19,-2.25 2.25,-0.313 3,0.688 0.06,1.812 2.19,1 -0.06,-2.5 1.19,0.875 0.93,1.438 0.19,1.625 -0.19,1.937 -1.75,-1.625 -3.5,-1.437 -3.56,-0.063 -2.75,0.813 -2.62,1.187 z"
              style="fill:url(#linearGradient3263)"/>
      <path
              id="path3212"
              fill-opacity="0.15686"
              d="m 100.79,33.615 -0.32,-0.937 0.38,-2.125 2.12,0.625 0.25,0.562 -1.93,0.5 z"/>
      <path
              id="path3214"
              fill-opacity="0.15686"
              d="m 102.85,31.178 -2.13,-0.5 -0.06,-2.563 2.19,0.75 z"/>
      <path
              id="path3216"
              fill-opacity="0.15686"
              d="m 108.91,26.803 -0.12,-2.563 1.25,1.75 0.31,2.25 z"/>
      <path
              id="path3218"
              fill-opacity="0.15686"
              d="m 119.85,30.615 v 2.25 l 2.75,0.438 -0.19,-2.563 z"/>
      <path
              id="path3221"
              fill-opacity="0.15686"
              d="m 104.35,32.553 -1.44,-0.813 0.13,-2.75 1.5,-1.687 2.56,-0.625 0.06,2.125 h 1.44 l 1.75,-0.5 -0.19,-2.25 2.25,-0.313 3,0.688 0.06,1.812 2.19,1 -0.06,-2.5 1.19,0.875 0.93,1.438 0.19,1.625 -0.19,1.937 -1.75,-1.625 -3.5,-1.437 -3.56,-0.063 -2.75,0.813 -2.62,1.187 z"/>
      <path
              id="path3223"
              fill-opacity="0.15686"
              d="m 100.22,33.115 -0.06,1.063 0.13,5.25 2.81,2.562 3.06,1.188 7.06,1 4.69,-0.813 3.06,-1.75 1.69,-1.937 -0.06,-5.688 -0.75,1.063 -2,1.937 -0.44,-2.5 -6.69,1.313 -0.31,2.812 -6.56,-0.562 0.06,-3 -3.12,-0.75 -1.63,-1.563 -0.25,1.188 z"/>
      <path
              id="path3225"
              fill="#d59163"
              d="m 114.6,61.388 4.81,-1.25 -0.43,-2.25 -0.94,-2.438 -1.56,-2.375 -1.19,2.125 -0.75,2.375 V 59.2 Z"/>
      <path
              id="path3266"
              d="m 58.83,101.88 -21.25,7.43 -1.437,-30.748 25.312,-8.124 44.435,-14 0.07,28.624 -18.317,6.626 -0.063,-18.626 -8.125,-1 -6.687,0.938 -7.875,3.812 -5.938,4.876 z"
              fill="url(#linearGradient3269)"
              style="fill:url(#linearGradient3269)"/>
      <path
              id="path3271"
              d="m 85.555662,72.95206 c 0.571,0.088 2.216338,0.03194 2.216338,0.03194 l -0.176,18.573 -2.927038,-1.159196 z"
              fill="url(#linearGradient3273)"
              style="fill:url(#linearGradient3273)"
              sodipodi:nodetypes="ccccc"/>
      <path
              id="path3275"
              fill-opacity="0.15686"
              d="M 84.505687,72.868952 C 85.076687,72.956952 87.772,72.984 87.772,72.984 L 87.596,91.557 84.668962,90.397804 Z"
              sodipodi:nodetypes="ccccc"/>
      <path
              id="path3277"
              fill-opacity="0.12549"
              fill="#ffffff"
              d="M 56.293,102.73 V 81.057 l 3.291,-3.415 4.595,-3.478 4.471,-2.111 4.222,-1.366 5.65,-0.931 3.416,-0.125 5.402,0.435 2.794,0.745 -0.124,19.746 -2.422,1.056 V 72.985 l -6.458,-0.87 -5.278,0.186 -3.974,1.242 -6.457,2.733 -6.086,5.029 -0.496,0.683 0.062,19.992 z"/>
      <path
              id="path3319"
              d="m 35.648,73.376 4.596,-1.591 0.442,2.21 5.657,-1.326 -0.442,-2.475 5.127,-1.149 0.265,2.033 5.48,-1.591 -0.089,-1.945 4.331,-1.325 0.354,1.944 4.596,-1.503 v -2.209 l 3.978,-0.884 0.265,1.502 4.508,-0.53 -0.354,-2.298 4.331,-1.326 0.354,1.856 4.154,-0.618 -0.177,-2.917 4.773,-1.238 1.061,2.033 3.447,-0.972 -0.265,-2.386 4.861,-1.68 -0.177,2.652 4.686,-1.149 0.09,-3.005 c 0,0 4.33,-2.122 4.33,-1.768 0,0.353 0.09,4.773 0.09,4.773 L 56.154,72.139 36.09,78.503 Z"
              fill="url(#linearGradient3321)"
              style="fill:url(#linearGradient3321)"/>
      <path
              id="path3323"
              fill="url(#linearGradient3409)"
              d="m 35.736,73.111 -0.265,-2.033 2.387,-0.884 2.651,1.326 z"
              style="fill:url(#linearGradient3409)"/>
      <path
              id="path3325"
              fill="url(#linearGradient3407)"
              d="m 40.156,71.785 3.093,-0.884 2.917,1.414 -5.48,1.503 z"
              style="fill:url(#linearGradient3407)"/>
      <path
              id="path3327"
              d="M 43.249,70.636 V 68.78 l 2.74,1.414 0.266,2.387 z"
              fill="url(#linearGradient3405)"
              style="fill:url(#linearGradient3405)"/>
      <path
              id="path3329"
              d="m 43.603,68.603 4.861,-1.237 2.21,1.414 -4.773,1.149 z"
              fill="url(#linearGradient3403)"
              style="fill:url(#linearGradient3403)"/>
      <path
              id="path3331"
              d="m 50.674,68.78 3.182,-0.442 2.828,1.326 -5.656,1.414 z"
              fill="url(#linearGradient3401)"
              style="fill:url(#linearGradient3401)"/>
      <path
              id="path3333"
              d="m 53.944,66.305 0.177,2.033 2.74,1.237 -0.353,-2.121 z"
              fill="url(#linearGradient3399)"
              style="fill:url(#linearGradient3399)"/>
      <path
              id="path3335"
              d="m 53.944,65.863 4.597,-1.061 2.298,1.238 -4.243,1.502 z"
              fill="url(#linearGradient3397)"
              style="fill:url(#linearGradient3397)"/>
      <path
              id="path3337"
              d="m 60.662,65.863 2.917,-0.442 2.563,1.326 -4.773,1.414 z"
              fill="url(#linearGradient3395)"
              style="fill:url(#linearGradient3395)"/>
      <path
              id="path3339"
              d="m 63.225,63.211 0.354,2.122 2.563,1.237 -0.177,-2.21 z"
              fill="url(#linearGradient3393)"
              style="fill:url(#linearGradient3393)"/>
      <path
              id="path3341"
              d="m 63.402,63.035 4.331,-1.238 2.386,1.503 -3.889,1.06 z"
              fill="url(#linearGradient3391)"
              style="fill:url(#linearGradient3391)"/>
      <path
              id="path3343"
              d="m 69.854,63.211 2.122,-0.176 2.651,1.414 -4.419,0.618 z"
              fill="url(#linearGradient3389)"
              style="fill:url(#linearGradient3389)"/>
      <path
              id="path3345"
              d="m 71.887,63.123 0.177,-2.387 2.387,1.061 0.353,2.563 z"
              fill="url(#linearGradient3387)"
              style="fill:url(#linearGradient3387)"/>
      <path
              id="path3347"
              d="m 71.976,60.736 4.507,-1.414 2.122,1.326 -3.889,1.326 z"
              fill="url(#linearGradient3385)"
              style="fill:url(#linearGradient3385)"/>
      <path
              id="path3349"
              fill="url(#linearGradient3383)"
              d="m 78.958,60.56 1.768,0.176 2.21,1.238 -3.624,0.795 z"
              style="fill:url(#linearGradient3383)"/>
      <path
              id="path3351"
              d="m 80.461,57.82 v 2.916 l 2.74,1.15 -0.177,-2.741 z"
              fill="url(#linearGradient3381)"
              style="fill:url(#linearGradient3381)"/>
      <path
              id="path3353"
              d="m 80.549,57.82 2.564,1.414 5.038,-1.326 -2.74,-1.591 z"
              fill="url(#linearGradient3379)"
              style="fill:url(#linearGradient3379)"/>
      <path
              id="path3355"
              d="m 87.886,57.908 1.767,-0.442 2.475,1.414 -3.447,0.884 z"
              fill="url(#linearGradient3377)"
              style="fill:url(#linearGradient3377)"/>
      <path
              id="path3357"
              d="m 89.565,57.554 -0.265,-2.209 2.651,1.237 -0.088,2.122 z"
              fill="url(#linearGradient3375)"
              style="fill:url(#linearGradient3375)"/>
      <path
              id="path3359"
              d="m 89.3,55.522 5.657,-2.387 2.386,1.679 -5.392,2.033 z"
              fill="url(#linearGradient3373)"
              style="fill:url(#linearGradient3373)"/>
      <path
              id="path3361"
              d="m 96.901,54.726 2.21,0.265 2.739,1.326 -5.037,1.414 z"
              fill="url(#linearGradient3371)"
              style="fill:url(#linearGradient3371)"/>
      <path
              id="path3363"
              fill="url(#linearGradient3369)"
              d="m 99.111,54.814 0.177,-2.563 2.302,1.238 -0.18,2.74 z"
              style="fill:url(#linearGradient3369)"/>
      <path
              id="path3365"
              d="m 98.934,51.809 4.686,-1.414 2.3,1.414 -4.51,1.68 z"
              fill="url(#linearGradient3367)"
              style="fill:url(#linearGradient3367)"/>
    </g>
    <g
            id="g1283">
      <path
              id="path2312"
              fill-rule="evenodd"
              d="m 84.357847,38.799505 c 0.09525,-0.0029 0.185208,7.93e-4 0.296333,0 0.219604,-0.0016 0.418042,0.0095 0.629709,0.05794 l 0.179916,0.330729 c -0.388937,-0.07699 -0.724958,-0.188912 -1.230312,-0.05794 l -0.174625,-0.297657 c 0.105833,-0.02117 0.203729,-0.03043 0.298979,-0.03307 z m -0.455083,0.04948 0.22225,0.330729 0.07408,0.496093 -0.256646,-0.322527 z m -1.026584,0.182033 0.314854,0.297656 c -0.378354,0.104775 -0.640291,0.205052 -0.902229,0.578644 l -0.436562,-0.239713 c 0.272521,-0.341312 0.584729,-0.461962 1.023937,-0.636587 z m 1.852084,0.181769 c 0.283104,0.0056 0.534458,0.07382 0.801687,0.124089 l 0.0344,0.463021 c 0.232833,0.07832 0.531812,0.333375 0.661458,0.322527 l -0.05027,-0.694531 c 0.214313,0.14896 0.39423,0.351367 0.478896,0.512498 0.09525,0.173566 0.121709,0.348721 0.05821,0.545835 l -0.01587,0.3556 c -0.582084,-0.688181 -1.436688,-0.870479 -2.29923,-0.769144 -0.627062,0.103982 -1.291166,0.30533 -1.743604,0.777346 l -0.288396,-0.182033 -0.01852,-0.06615 -0.02381,-0.529167 c 0.232833,-0.381793 0.592667,-0.519377 1.000125,-0.636587 l 0.05821,0.537369 c 0.1905,0.0061 0.402167,0.01164 0.90223,-0.148696 l -0.05821,-0.554038 c 0.164042,-0.05371 0.333375,-0.05001 0.502709,-0.05794 z m 1.918229,0.124089 c 0.195791,0.14314 0.375708,0.1905 0.521229,0.363802 0.142875,0.170127 0.238125,0.412221 0.240771,0.702734 l -0.563563,-0.01641 c 0.04498,-0.194204 -0.02117,-0.306916 -0.113771,-0.479689 -0.09525,-0.172244 -0.1905,-0.3556 -0.396875,-0.504296 z m -2.759604,0.148696 0.214312,0.306123 c -0.195792,0.07752 -0.359833,0.14949 -0.60325,0.12409 l -0.0079,-0.322528 c 0.166687,0.0058 0.251354,-0.02064 0.396875,-0.107685 z m 1.852083,0.06615 c 0.129646,-0.0029 0.256646,0.03334 0.386292,0.115887 l 0.01058,0.322527 c -0.137583,-0.09128 -0.3175,-0.214577 -0.481542,-0.256381 l 0.0079,-0.173566 c 0.02646,-0.0024 0.05027,-0.0077 0.07673,-0.0085 z m -4.011083,0.231775 0.49477,0.239712 0.01852,0.512498 c -0.150812,-0.03069 -0.291041,-0.04392 -0.481541,-0.173566 z m 3.008312,0.396875 c 0.756708,-0.01297 1.431396,0.150019 1.918229,0.777081 0.0053,0.07885 -0.02646,0.106098 -0.07408,0.157163 l -0.206375,-0.405077 c -0.537104,0.260085 -1.090083,0.493447 -1.743604,0.495829 l -0.07408,0.760941 c -0.293687,-0.0019 -0.489479,0.02434 -0.81227,-0.09948 L 83.677868,41.2469 c -0.404813,-0.07408 -0.73025,-0.18071 -0.926042,-0.306123 0.441854,-0.444764 1.060979,-0.641879 1.664229,-0.744008 0.108479,-0.0079 0.214313,-0.01482 0.320146,-0.0164 z m 2.696104,0.305858 -0.0079,0.595313 -0.645584,-0.107421 0.02646,-0.463021 z m -5.662083,0.04948 0.470958,0.107686 0.03175,0.06615 -0.486833,0.123825 -0.07408,0.339195 c -0.02646,-0.1778 -0.0026,-0.458523 0.05821,-0.636852 z m 0.619125,0.272786 c 0.187854,0.227541 0.500062,0.370416 1.058333,0.487891 l -0.396875,0.198438 c -0.402166,-0.13335 -0.806979,0.0053 -1.116541,-0.529167 z m 3.944937,0.02487 0.179917,0.504295 c -0.579437,0.164836 -1.013354,0.365919 -1.627187,0.347398 l -0.116417,-0.380206 c 0.500062,-0.04657 1.002771,-0.176477 1.563687,-0.471487 z m 0.463021,0.27305 0.642938,0.06615 c -0.05556,0.387615 -0.365125,0.638175 -0.661459,0.85143 l -0.07408,-0.628386 -0.06615,-0.148696 c 0.08996,-0.03889 0.124354,-0.05715 0.15875,-0.140493 z m -4.971521,0.04948 c 0.283105,0.381 0.767292,0.357981 1.190625,0.512498 l -0.01587,0.702997 c 0.36248,0.115623 0.664105,0.193146 1.852084,0.223044 l 0.02646,-0.719137 c 0.650875,0.01535 1.145646,-0.236538 1.727729,-0.396875 l 0.105834,0.752475 c 0.333375,-0.215371 0.574145,-0.366713 0.746125,-0.727604 0.03704,0.451908 0.0026,0.706437 -0.0344,1.173956 -0.600604,0.972079 -1.801813,1.218406 -2.844271,1.2319 -1.018646,-0.05239 -2.203979,-0.2413 -2.836333,-1.149086 -0.04498,-0.566473 -0.214313,-1.14591 -0.0979,-1.562893 l 0.113771,0.281252 z m 2.836334,0.198437 0.124354,0.421746 -0.05027,0.619919 -0.08996,-0.446352 z m -1.050396,0.01667 0.01852,0.487627 -0.497417,0.297656 0.02646,-0.479425 z m 0.108479,0.586846 c 0.338667,0.128852 0.555625,0.112977 0.851958,0.115887 l 0.06615,0.372004 c -0.508,0.02196 -0.965729,-0.01058 -1.431396,-0.198437 z m -1.455208,1.455208 c 0.717021,0.41275 1.471083,0.575204 2.283354,0.611981 0.859896,0.0053 1.698625,-0.09366 2.428875,-0.578908 0.227542,1.826419 0.492125,8.789987 0.60325,10.633075 -1.80975,1.363927 -3.357563,1.230048 -4.431771,0.75221 l -0.01588,-7.523956 v -1.322917 l -0.677333,-0.347398 -0.306917,0.08282 c 0.0344,-0.864129 0.07408,-1.894946 0.116417,-2.306902 z m 0.100541,2.331773 0.611188,0.256381 -1.108604,0.363538 -0.512498,-0.256117 z m 0.650875,0.338931 v 1.14935 l -18.35441,5.76289 -0.06615,-1.264973 1.066536,-0.380471 0.07435,0.595312 1.629039,-0.396875 -0.07461,-0.603514 1.215496,-0.281252 0.03307,0.545835 1.61237,-0.446352 -0.06614,-0.554037 1.050131,-0.33073 0.04948,0.56224 1.422135,-0.405077 -0.0164,-0.58711 0.967317,-0.306123 0.05794,0.487891 1.273175,-0.198437 -0.05794,-0.661459 1.033727,-0.280987 0.09922,0.512498 1.140883,-0.20664 -0.0164,-0.7112 1.182158,-0.330729 0.157163,0.504561 1.075002,-0.264584 0.0082,-0.636852 1.050131,-0.43815 0.107421,0.768879 1.339056,-0.380206 0.01587,-0.826823 z m -1.68566,0.148696 0.521494,0.248179 0.02381,0.578908 -0.561975,-0.289454 z m 4.506119,0.06615 c -0.362479,0.66675 -0.613834,1.009121 -0.545042,2.339975 l 1.42875,-0.347134 C 86.596222,47.879475 86.535368,47.582613 86.424243,47.166952 86.289305,46.748381 86.122618,46.627996 85.836868,46.29859 Z m -24.085285,0.03334 c 0.09499,-0.0029 0.187325,5.29e-4 0.297656,0 0.220398,-0.0016 0.418571,0.0095 0.628385,0.05768 l 0.181769,0.33073 c -0.39079,-0.07673 -0.726017,-0.188648 -1.2319,-0.05768 l -0.173567,-0.29792 c 0.10504,-0.0209 0.202671,-0.03016 0.297657,-0.03281 z m -0.454819,0.04948 0.223308,0.33073 0.07435,0.496093 -0.256381,-0.322527 z m 24.555979,0.09922 c 0.209021,0.198702 0.354541,0.442383 0.447146,0.735806 0.0979,0.3048 0.164041,0.643996 0.256645,0.975784 l -1.132416,0.297656 c 0.0291,-0.748506 0.06615,-1.466321 0.428625,-2.009246 z m -5.902854,0.0082 0.702733,0.322527 -1.281377,0.454819 -0.537633,-0.281252 z m -19.678385,0.07435 0.314325,0.297921 c -0.37809,0.104775 -0.640557,0.205052 -0.901436,0.578644 l -0.43815,-0.239713 c 0.273315,-0.341312 0.585788,-0.461962 1.025261,-0.636852 z m 1.852083,0.182033 c 0.282839,0.0053 0.5334,0.07355 0.801952,0.12409 l 0.03307,0.463021 c 0.232039,0.07805 0.5334,0.333375 0.661458,0.322527 l -0.04948,-0.694796 c 0.213519,0.149225 0.392642,0.351631 0.479425,0.512763 0.09366,0.173566 0.120385,0.34872 0.05794,0.54557 l -0.0164,0.3556 c -0.582084,-0.687916 -1.436688,-0.870214 -2.2987,-0.768879 -0.626798,0.103982 -1.292754,0.305329 -1.744663,0.777346 L 59.759,48.200439 59.74233,48.134289 59.71746,47.605122 c 0.232304,-0.381793 0.592138,-0.519377 1.000654,-0.636587 l 0.05768,0.537369 c 0.189707,0.0061 0.401373,0.01138 0.901436,-0.148961 L 61.61929,46.80317 c 0.164306,-0.05371 0.334962,-0.05001 0.504296,-0.05794 z m 18.669793,0.09922 0.5207,0.09922 0.538163,0.248179 -1.091936,0.314061 z m -16.751564,0.02487 c 0.196056,0.14314 0.375444,0.1905 0.520965,0.363802 0.142875,0.170127 0.236537,0.412221 0.239712,0.702733 l -0.56224,-0.0164 c 0.04366,-0.194204 -0.02249,-0.306916 -0.115622,-0.479689 -0.09313,-0.172244 -0.189971,-0.3556 -0.396875,-0.504296 z m -2.761456,0.148696 0.214841,0.306123 c -0.194204,0.07726 -0.358775,0.149225 -0.603514,0.123825 l -0.0082,-0.322263 c 0.167746,0.0058 0.253735,-0.02064 0.396875,-0.107685 z m 1.852083,0.06615 c 0.130704,-0.0029 0.257704,0.03307 0.388408,0.115887 l 0.0085,0.322527 c -0.135467,-0.09128 -0.316442,-0.214577 -0.47969,-0.256381 l 0.0082,-0.173831 c 0.02461,-0.0021 0.05001,-0.0077 0.07461,-0.0082 z m 15.684764,0.03307 0.43815,0.206904 0.06615,0.454554 -0.512498,-0.272785 z m -19.695053,0.198437 0.496093,0.239713 0.01667,0.512762 c -0.150019,-0.03069 -0.290248,-0.04392 -0.47969,-0.173567 z m 23.894255,0.01667 -0.0079,7.441406 -4.108715,1.471613 0.0085,-5.233723 c -0.691356,-0.167482 -1.588823,-0.291307 -2.364846,-0.289454 -2.327804,0.0058 -4.863835,0.858572 -6.614583,3.026304 l 0.02487,5.688806 -4.878388,1.743604 -0.413279,-8.077465 z m -5.439568,0.05794 0.529166,0.247914 -1.082939,0.281252 -0.471488,-0.239977 z m 1.199091,0.239712 0.553773,0.272786 -0.744008,0.157162 -0.165365,-0.388673 z m -16.644143,0.08255 c 0.754856,-0.0127 1.429808,0.150283 1.918229,0.777346 0.005,0.07885 -0.02752,0.106098 -0.07435,0.157162 L 63.769031,48.24169 c -0.537634,0.26035 -1.089819,0.493712 -1.744663,0.496094 l -0.07435,0.760677 c -0.293158,-0.0016 -0.489744,0.02461 -0.810419,-0.09922 l -0.06614,-0.619919 c -0.4064,-0.07435 -0.73025,-0.18071 -0.926042,-0.306123 0.440796,-0.444764 1.06045,-0.641879 1.662112,-0.744008 0.110861,-0.0082 0.214577,-0.01482 0.322263,-0.01667 z m 14.262893,0.02487 0.512498,0.239712 0.09922,0.678128 -0.595312,-0.306123 z m -11.567318,0.280987 -0.0082,0.595313 -0.645054,-0.107421 0.02487,-0.463021 z m -5.663671,0.04974 0.471223,0.107421 0.03307,0.06615 -0.487892,0.124089 -0.07435,0.338932 c -0.02646,-0.177536 -0.0019,-0.458259 0.05794,-0.636588 z m 16.007292,0.05794 0.504295,0.256381 -0.876564,0.28919 -0.56224,-0.28919 z m -15.387373,0.214842 c 0.187325,0.227277 0.499533,0.370416 1.058333,0.487891 l -0.396875,0.198438 c -0.402696,-0.13335 -0.805391,0.0053 -1.116012,-0.529167 z m 3.944144,0.02487 0.181768,0.504296 c -0.579702,0.164571 -1.015206,0.365919 -1.628775,0.347398 l -0.115887,-0.380471 c 0.501121,-0.0463 1.001977,-0.176212 1.562894,-0.471223 z m 12.57591,0.07435 0.578644,0.27305 -0.752211,0.156898 -0.115887,-0.405077 z m -2.157942,0.03307 0.5207,0.248179 0.08281,0.553773 -0.56224,-0.264583 z m -9.954948,0.165365 0.64479,0.06615 c -0.05742,0.387879 -0.364596,0.638175 -0.661458,0.851693 l -0.07435,-0.628385 -0.06615,-0.148696 c 0.08943,-0.03889 0.124619,-0.05715 0.157162,-0.140758 z m -4.969404,0.04974 c 0.282046,0.381 0.767292,0.357717 1.190625,0.512498 l -0.0164,0.702998 c 0.362215,0.115359 0.663046,0.193146 1.852083,0.223044 l 0.02487,-0.719402 c 0.650875,0.01561 1.14644,-0.236273 1.727994,-0.396875 l 0.107421,0.752475 c 0.331787,-0.215106 0.573352,-0.366713 0.744273,-0.727604 0.03704,0.451908 0.0037,0.706702 -0.03307,1.174221 -0.601134,0.972079 -1.802077,1.218141 -2.844271,1.2319 -1.01891,-0.05239 -2.203979,-0.2413 -2.836069,-1.14935 -0.04524,-0.566209 -0.214312,-1.145646 -0.09922,-1.56263 l 0.115622,0.280988 z m 13.642711,0.09102 0.570441,0.256117 -0.983985,0.256381 -0.463021,-0.23151 z m -10.806642,0.107421 0.12409,0.421746 -0.04974,0.619919 -0.09075,-0.446353 z m -1.050131,0.0164 0.01667,0.487892 -0.496094,0.297656 0.02487,-0.47969 z m 12.650523,0.148961 0.3556,0.0164 0.570441,0.272785 -0.801952,0.140758 z m -1.761067,0.09922 0.553773,0.264584 0.05794,0.46302 -0.595313,-0.314325 z m -10.781771,0.338932 c 0.338667,0.128852 0.555625,0.112977 0.851429,0.115622 l 0.06615,0.372269 c -0.507735,0.02196 -0.966523,-0.01085 -1.430337,-0.198437 z m 9.326563,0.02487 0.586845,0.314061 -1.016793,0.297656 -0.570707,-0.297656 z m 1.413668,0.173567 0.587111,0.272785 -1.140884,0.305859 -0.07461,-0.454554 z m -2.447396,0.264583 0.56224,0.272786 0.01667,0.429948 -0.529167,-0.280988 z m -1.595702,0.347398 0.554038,0.231246 -1.174221,0.27305 -0.487627,-0.248179 z m 1.455209,0.132292 0.595312,0.280987 -1.198827,0.297657 -0.08281,-0.463021 z m -2.662238,0.214842 0.537369,0.256381 0.02487,0.446352 -0.512763,-0.272785 z m 10.054167,0.140493 c 0.779727,0.0011 1.520825,0.103982 2.182812,0.289455 l -0.03307,5.200649 -0.46302,0.165365 0.0082,-4.952471 c -0.683155,-0.129381 -1.439334,-0.214312 -2.108465,-0.198437 -2.007129,0.04736 -3.942027,0.804069 -5.729817,2.637366 l -0.0082,5.3086 -0.487891,0.174625 -0.03307,-5.60705 c 1.672166,-2.133864 4.332552,-3.021012 6.672527,-3.018102 z m -16.999479,0.157163 c 0.715962,0.412485 1.470025,0.575204 2.282031,0.611981 0.862277,0.0053 1.69889,-0.09366 2.430727,-0.578908 0.227013,1.826154 0.492654,8.789458 0.603515,10.633604 -2.716742,2.045229 -4.856692,0.748771 -5.663671,-0.07408 0.07593,-1.825625 0.170656,-8.836289 0.347398,-10.592593 z m 5.308071,0.04127 0.628385,0.239977 -1.017058,0.31406 -0.0164,-0.372004 z m 1.579298,0.140494 0.636587,0.322527 -1.289844,0.306123 -0.06615,-0.47969 z m 11.685058,5.437443 4.718095,-1.642297 c 1.643062,0.738187 3.741208,0.3175 4.754562,-0.777081 L 87.151847,43.289219 c 0.179917,-0.145256 0.330729,-0.315119 0.420687,-0.512762 0.01852,-0.869157 -0.02646,-1.544109 -0.03969,-2.315105 -0.0079,-0.273314 -0.100542,-0.552185 -0.264583,-0.801952 -0.211667,-0.285485 -0.410105,-0.356129 -0.60325,-0.50456 l -0.53975,0.190235 v 0.190236 C 85.95593,39.444294 85.818347,39.4562 85.662243,39.452761 L 85.630493,39.3038 85.323576,38.733359 c -0.248708,-0.03916 -0.500062,-0.05133 -0.751417,-0.04974 v -2e-6 c -0.251354,0.0019 -0.500062,0.01455 -0.751416,0.02487 l 0.03175,0.694531 c -0.124354,0.07488 -0.291042,0.06509 -0.428625,0.107421 l -0.01058,-0.140494 -0.502708,-0.471223 c -0.386292,0.199496 -0.796396,0.278077 -1.299104,0.835025 l 0.05027,0.653256 c -0.213254,0.759619 -0.148167,1.608932 -0.100542,2.389453 0.116417,0.242093 0.325438,0.406664 0.53975,0.562239 l -0.07673,2.422525 -0.875506,0.248179 0.03307,0.760677 -0.355336,-0.06615 -0.686329,-0.388672 -1.579298,0.628385 0.07435,0.545571 -0.297656,0.07461 -0.652992,-0.363802 -1.480079,0.388673 0.115623,0.735806 h -0.347133 l -0.07435,-0.0082 -0.628386,-0.388673 -1.29831,0.421482 0.08282,0.562504 -0.454819,0.07435 -0.661459,-0.363802 -1.198827,0.31406 0.08255,0.645054 -0.619918,0.173567 -0.678127,-0.347398 -1.248569,0.364067 0.01667,0.553773 -0.727605,0.165364 v -0.0082 l -0.04974,0.01667 -0.64479,-0.380471 -1.422135,0.338931 0.02487,0.570706 -0.620184,0.198438 -0.09922,-0.09102 -0.628386,-0.339196 -0.570442,0.157163 -0.0085,-0.132292 c 0.180446,-0.144991 0.330464,-0.314854 0.421746,-0.512498 0.01905,-0.869156 -0.02778,-1.544108 -0.04128,-2.315104 -0.0071,-0.273314 -0.09948,-0.552185 -0.264584,-0.801952 -0.210873,-0.285485 -0.409046,-0.356394 -0.603514,-0.50456 l -0.537634,0.190235 v 0.190236 c -0.169598,-0.09102 -0.307975,-0.07911 -0.46302,-0.08282 l -0.03307,-0.148696 -0.305859,-0.570442 c -0.250031,-0.03942 -0.500327,-0.05133 -0.752475,-0.04974 -0.251883,0.0016 -0.500856,0.01455 -0.75221,0.02487 l 0.03307,0.694531 c -0.125677,0.07488 -0.290777,0.06509 -0.429948,0.107421 l -0.0085,-0.140494 -0.504296,-0.471488 c -0.384968,0.199761 -0.796395,0.278342 -1.298045,0.83529 l 0.04948,0.653256 c -0.21299,0.759619 -0.147902,1.608667 -0.09922,2.389452 0.1143,0.242094 0.325437,0.4064 0.537633,0.56224 L 59.13062,61.585685 c 1.6256,1.801813 4.67995,1.486959 5.969529,0.0926 l -0.0164,-0.373063 5.647002,-2.016125 c 0,0 0.0048,0.980645 -0.07435,-5.350399 0.03403,-0.02961 0.658468,-0.702466 1.874408,-1.408015 0.603889,-0.350406 1.817028,-0.810026 2.283915,-0.911308 0.780652,-0.169348 2.601961,-0.01405 2.601961,-0.01405 0,0 -0.0021,4.623424 0.0432,4.637842 m 0.728937,0.209079 -0.07435,-4.729692 c -0.08996,-0.02038 -0.434552,-0.03643 -0.434552,-0.03643 l 0.04212,4.558594 M 63.38856,53.781536 c -0.361421,0.666485 -0.620977,1.008856 -0.553773,2.339975 l 1.430337,-0.347398 c -0.125412,-0.411957 -0.177271,-0.708819 -0.289454,-1.12448 -0.135996,-0.418306 -0.302419,-0.538956 -0.58711,-0.868097 z m 0.01667,0.18176 c 0.207169,0.198967 0.35269,0.442384 0.446353,0.735807 0.09737,0.3048 0.16457,0.64426 0.256381,0.975783 l -1.132681,0.297656 c 0.0291,-0.748242 0.06667,-1.466321 0.429947,-2.009246 z"
              style="stroke-width:0.264583"
              sodipodi:nodetypes="scccccssccccccccccccccccccccccccccccccscccccccccccccccccccccccscccccccccssccccccccccsccccccccccccccccsccccccccccccccccccccccccccccccsccccccccsscccccccccccccccccccccccccccccccccccccccccccsccccscccccccccccccccccccccccccccsccccccccccccccccssccccccscccccccccscccccccccccccccccccccccccccccccccccccccccccccccccccccccccccccccccscccccccccccccccccccccccccccccccscccccccccccccccccccccccccccccccccccccccccccccccccccccccccccccccccccccccccccscccccccccsssccccsscccccccccccccccccccccccsscccccccccccccccccccccccccccccccccccccccccccccccccccccsccccccccccccccssccccsccccccccccc"/>
    </g>
  </g>
  <g
          inkscape:groupmode="layer"
          id="flag"
          inkscape:label="Flag"
          style="display:none;mix-blend-mode:normal">
    <g
            id="g1380">
      <path
              id="path3234"
              fill="#00923e"
              d="M 5.422928,1.6575683 C 5.7624225,1.5410286 6.1034249,1.4320285 6.4549827,1.3553406 6.7789673,1.2846844 7.1096298,1.2439709 7.4402923,1.2291072 c 0.3946408,-0.017664 0.7942362,-0.035544 1.1860766,0.01314 0.3078285,0.038344 0.6169495,0.076257 0.9122838,0.1813797 0.2139074,0.076042 0.3916251,0.2160615 0.5734353,0.344449 0.181165,0.1277413 0.364483,0.2737929 0.480161,0.4624967 0.05967,0.097368 0.128387,0.2257552 0.0405,0.3323858 -0.08552,0.1036147 -0.205291,0.2242473 -0.154237,0.371376 0.05579,0.1604844 0.237603,0.2324331 0.382793,0.2996426 0.261083,0.1204172 0.530137,0.2927494 0.619103,0.5814059 0.09241,0.2996427 -0.06721,0.6290127 -0.194735,0.8597225 -0.127526,0.2307098 -0.189996,0.4489255 -0.290595,0.630736 -0.100599,0.1818105 -0.06333,0.3519886 -0.09801,0.5247517 -0.02068,0.1033993 -0.06613,0.1949508 -0.08057,0.301366 -0.02714,0.1977512 -0.0405,0.4017495 -0.04265,0.6029474 -0.0026,0.2192928 -0.0657,0.484469 -0.239326,0.5880838 -0.07173,0.042868 -0.06032,-0.1904272 -0.0026,-0.2548363 0.07561,-0.084443 0.174271,-0.2192928 0.08057,-0.3298009 C 10.463215,6.5625747 10.202994,6.5798079 9.9966257,6.5177683 9.7797025,6.4524974 9.516465,6.4393571 9.3572731,6.2670249 9.2562433,6.1575939 9.3762296,5.9971095 9.4748898,5.9298999 9.5612713,5.871307 9.6735027,5.8034511 9.5276666,5.7295637 9.3975557,5.6636466 9.246765,5.6683857 9.1052372,5.6593383 8.5899638,5.6265952 8.0705975,5.652445 7.5536007,5.6619233 7.0081692,5.6720478 6.4823405,5.8314551 5.9646975,5.990647 5.7841795,4.5462874 5.603446,3.1019279 5.422928,1.6575683 Z"
              style="fill:#4fb7f6;fill-opacity:1;fill-rule:evenodd;stroke-width:0.0215415"/>
      <path
              id="path3232"
              fill="#501a08"
              d="m 6.3039766,10.506398 -1.0925864,-8.9670927 0.031881,-0.034251 0.161346,-0.012494 0.2651762,2.0104709 0.8709241,6.9660998 -0.028004,0.04351 -0.1587611,0.028 z"
              style="fill-rule:evenodd;stroke-width:0.0215415"/>
      <g
              style="fill:none"
              id="g1188"
              transform="matrix(0.00622703,0,0,0.00622703,7.3077402,2.5762369)">
        <path
                d="M 279.498,104.56 332.425,49.891 H 279.498 Z"
                fill="#d62d69"
                id="path1159"/>
        <path
                d="m 175,106.663 80.546,-56.772 h 61.04 V 66.14 L 175,212.944 H 30.131 Z"
                fill="#5a6396"
                id="path1161"/>
        <path
                d="M 0,0 H 175 V 175.097 Z"
                fill="#404a84"
                id="path1163"/>
        <path
                d="M 175,175.097 H 350 V 350 Z"
                fill="#404a84"
                id="path1165"/>
        <path
                d="M 350,175.097 175,0 v 175.097 z"
                fill="#d1ebff"
                id="path1167"/>
        <path
                d="m 175,212.944 c 0,-1.145 0,-108.384 0,-108.384 h 141.584 z"
                fill="#a8cff0"
                id="path1169"/>
        <path
                d="M 316.584,104.56 V 66.14 l -37.086,38.42 z"
                fill="#eff1fe"
                id="path1171"/>
      </g>
    </g>
  </g>
  <g
          inkscape:groupmode="layer"
          id="layer3"
          inkscape:label="Gate"
          style="display:inline">
    <g
            id="gate"
            transform="translate(-59.730596,-0.3620671)">
      <g
              id="g1967"
              transform="matrix(0.26458333,0,0,0.26458333,60.489619,0.40457805)">
        <g
                id="layer2-2"
                fill-rule="evenodd"
                transform="translate(-4.2229797,-22.367175)">
          <path
                  id="path3279"
                  d="M 59.408,82.029 85.664,74.17 86.06,73.862 c 0,0 0.043,-0.263 -0.088,-0.439 C 85.84,73.248 85.708,72.94 85.708,72.94 l -24.324,6.982 -2.108,1.8 z"
                  fill="url(#linearGradient3281)"
                  style="fill:url(#linearGradient3281)"/>
          <path
                  id="path3283"
                  fill="url(#linearGradient3285)"
                  d="m 58.969,85.761 26.739,-8.167 0.395,-0.307 c 0,0 0.044,-0.263 -0.087,-0.439 -0.132,-0.176 -0.352,-0.527 -0.352,-0.527 L 58.925,84.4 Z"
                  style="fill:url(#linearGradient3285)"/>
          <path
                  id="path3287"
                  fill="url(#linearGradient3289)"
                  d="m 58.969,90.459 26.783,-8.606 0.395,-0.307 c 0,0 0.22,-0.351 0.088,-0.527 -0.132,-0.175 -0.439,-0.527 -0.439,-0.527 l -26.959,8.914 z"
                  style="fill:url(#linearGradient3289)"/>
          <path
                  id="path3291"
                  fill="url(#linearGradient3293)"
                  d="M 59.101,94.938 85.84,85.849 86.279,85.63 c 0,0 0.22,-0.308 0.044,-0.659 -0.098,-0.196 -0.307,-0.395 -0.307,-0.395 l -27.003,8.957 z"
                  style="fill:url(#linearGradient3293)"/>
          <path
                  id="path3295"
                  fill="url(#linearGradient3297)"
                  d="m 58.881,98.582 27.091,-8.737 0.395,-0.308 c 0,0 0.219,-0.351 0.088,-0.527 -0.132,-0.175 -0.571,-0.395 -0.571,-0.395 l -27.091,8.562 z"
                  style="fill:url(#linearGradient3297)"/>
          <path
                  id="path3299"
                  d="m 61.515,79.307 0.088,20.505 0.395,0.268 0.439,-0.137 0.615,-0.79 -0.439,-20.329 z"
                  fill="url(#linearGradient3301)"
                  style="fill:url(#linearGradient3301)"/>
          <path
                  id="path3303"
                  fill="url(#linearGradient3305)"
                  d="m 67.399,75.619 0.176,21.953 0.395,0.264 0.439,-0.132 0.483,-0.571 -0.176,-22.305 z"
                  style="fill:url(#linearGradient3305)"/>
          <path
                  id="path3307"
                  fill="url(#linearGradient3309)"
                  d="m 73.107,73.379 0.219,21.954 0.396,0.395 0.702,-0.088 0.351,-0.922 -0.263,-21.822 z"
                  style="fill:url(#linearGradient3309)"/>
          <path
                  id="path3311"
                  fill="url(#linearGradient3313)"
                  d="m 77.717,72.457 0.088,21.691 0.395,0.263 0.439,-0.132 0.615,-0.79 L 79.21,72.37 Z"
                  style="fill:url(#linearGradient3313)"/>
          <path
                  id="path3315"
                  fill="url(#linearGradient3317)"
                  d="m 83.03,72.106 0.132,20.241 0.395,0.264 0.615,-0.044 0.439,-0.878 -0.088,-19.407 z"
                  style="fill:url(#linearGradient3317)"/>
        </g>
        <path
                id="path2312-1"
                fill-rule="evenodd"
                d="m 55.01302,79.542825 -0.031,-3.191 2.313,-0.75 v 1.937 c 0.491,0.534 1.203,0.364 1.593,-0.625 l -0.031,-1.781 4.438,-1.469 0.031,1.75 c 0.689,0.592 0.902,0.587 1.562,-0.75 v -1.5 l 3.969,-1.281 v 1.438 c 0.545,0.554 1.741,0.396 1.813,-0.876 v -1.124 l 2.687,-0.876 c -0.002,0.27 0.002,1.348 0,1.532 0.414,0.394 0.988,0.531 1.75,-0.813 v -1.312 l 3.656,-1.157 v 1.563 c 1.728,0.567 1.61,-0.434 1.688,-0.656 v -1.344 l 2.844,1.281 z m 30.532,-11.379 -1.75,0.625 0.031,-18.718 c -2.582,-0.489 -5.44,-0.81 -7.969,-0.75 -7.586,0.179 -14.899,3.039 -21.656,9.968 l -0.031,20.064 z m -9.969,-18.031 c 0.921,-0.013 1.536,0.017 2.469,0.094 v 1.156 l -2.907,0.844 v -2.063 c 0.148,-0.004 0.29,-0.029 0.438,-0.031 z m -0.781,0.031 -0.063,20.907 c -0.493,0.928 -0.766,0.869 -1.031,0.656 l 0.031,-21.5 c 0.355,-0.03 0.706,-0.047 1.063,-0.063 z m -1.344,0.094 c -0.004,0.842 0.003,1.536 0,2.469 l -3.031,0.906 -0.032,-2.906 c 1.012,-0.218 2.039,-0.373 3.063,-0.469 z m 4.937,0 c 0.095,0.009 0.214,0.021 0.313,0.031 v 0.906 l -0.313,0.094 z m 0.594,0.063 c 0.337,0.036 0.672,0.108 1.031,0.156 l 0.094,19.187 c -0.301,0.834 -0.862,0.288 -1.156,0.25 z m 1.406,0.187 c 0.152,0.021 0.285,0.039 0.438,0.063 l -0.438,0.124 z m 0.969,0.219 c 0.242,0.292 0.529,0.561 -0.031,0.968 l -0.938,0.282 v -0.969 z m -11.219,0.031 0.313,21.687 c -0.177,1.213 -0.829,0.505 -1.219,0.532 l -0.25,-21.906 c 0.389,-0.108 0.765,-0.225 1.156,-0.313 z m 11.657,0 c 0.376,0.068 0.785,0.11 1.125,0.187 l 0.281,17.876 -2.125,-0.876 0.781,-0.25 c 0.807,-0.319 0.747,-1.529 -0.156,-1.656 l -1.25,0.406 v -2.374 l 1.437,-0.5 c 0.375,-0.018 0.707,-1.547 -0.156,-1.626 l -1.312,0.438 v -2.312 l 1.187,-0.376 c 1.035,-0.788 0.447,-1.801 -0.094,-1.812 l -1.093,0.344 v -2.375 l 1.312,-0.407 c 0.489,-0.781 0.321,-1.502 -0.25,-1.656 l -1.094,0.313 v -1.813 l 1.219,-0.344 c 0.317,-0.425 0.336,-0.813 0.188,-1.187 z m -13.094,0.406 0.031,2.938 -3.969,1.187 v -2.656 c 1.297,-0.607 2.616,-1.089 3.938,-1.469 z m 10,0.344 v 0.969 l -3.563,1.062 v -1.031 z m 0,1.281 0.031,1.844 -0.312,0.094 -0.032,-1.844 z m -14.313,0.032 0.125,21.656 c -0.238,0.598 -0.582,0.702 -0.937,0.718 l -0.219,-21.874 c 0.337,-0.181 0.693,-0.336 1.031,-0.5 z m 13.657,0.156 -0.032,1.875 -2.875,0.843 v -1.843 z m -4.594,0.031 c -0.002,0.381 -0.03,0.609 -0.031,1 l -2.969,0.906 -0.031,-1.031 z m -10.375,0.469 0.031,2.281 -4.5,1.313 v -0.594 c 1.47,-1.173 2.957,-2.167 4.469,-3 z m 18.312,0.594 c 0.479,0.469 0.692,0.889 0,1.124 l -0.968,0.282 -0.032,-1.125 z m -12.656,0.281 v 1.062 l -3.937,1.188 v -1.094 z m 4.688,0 c -0.003,0.738 0.002,1.119 0,1.875 l -2.938,0.906 -0.031,-1.906 z m 5.312,0.531 v 1.125 l -3.594,1.094 v -1.125 z m -10,0.844 v 1.937 l -3.937,1.188 v -1.938 z m -5.625,0.281 v 1.063 l -4.469,1.343 -0.031,-1.125 z m 15.625,0.375 v 2.438 l -0.281,0.093 -0.031,-2.469 z m -5.312,0.094 c -0.002,0.467 0.001,0.689 0,1.156 l -2.938,0.875 v -1.125 z m 4.593,0.094 -0.031,2.5 -2.844,0.968 v -2.594 z m -19.812,0.25 0.344,19.968 c -0.25,0.283 -0.449,0.874 -0.875,0.656 l -0.25,-20 c 0.254,-0.221 0.525,-0.414 0.781,-0.624 z m 4.906,0.562 0.031,1.938 -4.468,1.343 -0.032,-1.969 z m -5.969,0.344 v 1.125 l -1.75,0.531 c 0.565,-0.565 1.116,-1.116 1.688,-1.625 z m 11.625,0.187 v 1.125 l -3.968,1.188 v -1.125 z m 4.657,0.063 c -0.004,1.072 0.003,1.622 0,2.656 l -2.875,0.969 -0.063,-2.75 z m 8.187,0.218 c 0.123,0.446 0.475,0.915 -0.062,1.25 l -1.125,0.376 v -1.25 z m -24.469,0.938 0.032,2 -2.282,0.688 v -1.938 c 0.031,-0.032 0.063,-0.062 0.094,-0.094 z m 21.594,0.031 v 1.157 l -3.625,1.156 0.031,-1.125 z m -9.969,0.219 v 2.812 l -3.937,1.313 -0.031,-2.937 z m -5.625,0.188 0.032,1.156 -4.5,1.375 v -1.157 z m 15.594,1.031 0.031,2.343 -0.312,0.126 v -2.407 z m -0.75,0.219 v 2.406 l -2.875,0.937 v -2.406 z m -4.562,0.124 c -0.002,0.411 -0.03,0.665 -0.032,1.063 l -2.843,0.906 v -1 z m -10.25,0.126 0.031,3 -4.469,1.5 -0.031,-3.126 z m -6,0.312 v 1.156 l -2.25,0.688 -0.032,-1.156 z m 16.218,0.875 c -0.003,0.928 0.004,1.674 0,2.5 l -2.812,0.937 -0.031,-2.5 z m 8.313,0 c 0.23,0.196 0.458,0.929 0.094,1.094 l -1.344,0.469 -0.031,-1.126 z m -12.906,0.25 v 0.969 l -3.969,1.25 v -0.906 z m -11.625,0.375 0.031,3.188 -2.281,0.781 v -3.25 z m 21.593,0.344 v 1.125 l -3.656,1.25 v -1.125 z m -9.968,0.5 v 2.531 l -3.938,1.344 -0.031,-2.625 z m -5.594,0.625 v 0.875 l -4.469,1.437 v -0.781 z m 15.562,0.281 v 2.344 l -0.281,-0.094 v -2.156 z m -0.812,0.281 v 2.219 l 0.156,0.062 -3,0.938 v -2.25 z m -4.563,0.157 c -10e-4,0.354 0.002,0.765 0,1.093 l -2.781,0.938 -0.031,-1.094 z m -10.187,0.406 0.031,2.656 -4.437,1.5 -0.032,-2.719 z m 18.25,0.844 c 1.209,0.306 0.498,0.905 0.187,1.187 l -0.937,0.281 -0.25,-0.094 v -1.062 z m -24.25,0.062 v 0.75 l -2.25,0.719 -0.031,-0.719 z m 16.187,0.062 c -0.003,0.661 -0.028,1.727 -0.031,2.25 l -2.719,0.876 -0.031,-2.157 z m -4.593,0.157 0.031,1.093 -3.969,1.344 v -1.125 z m 9.968,0.593 v 1.219 l -3.656,1.157 v -1.219 z m -21.562,0.188 0.031,2.781 -2.281,0.75 v -2.812 z m 11.625,0.594 v 2.156 l -3.969,1.281 v -2.062 z m -5.594,0.5 0.031,1.094 -4.468,1.5 v -1.094 z m 10.125,0.437 c -0.002,0.276 0.002,0.991 0,1.219 l -2.719,0.875 v -1.187 z m -10.094,0.969 0.032,2.031 -4.469,1.438 v -1.969 z m 5.563,0.5 0.031,1.188 -3.969,1.281 -0.031,-1.188 z m -11.594,0.125 v 1.063 l -2.25,0.781 -0.031,-1.094 z m 0.031,1.406 v 1.907 l -2.281,0.75 v -1.876 z m 6.032,0.25 v 1.188 l -4.438,1.437 v -1.187 z m -6.032,1.969 v 1.125 l -2.281,0.75 v -1.156 z"
                sodipodi:nodetypes="ccccccccccccccccccccccccccccccccccccccccccccccccccccccccccccccccccccccccccccccccccccccccccccccccccccccccccccccccccccccccccccccccccccccccccccccccccccccccccccccccccccccccccccccccccccccccccccccccccccccccccccccccccccccccccccccccccccccccccccccccccccccccccccccccccccccccccccccccccccccccccccccccccccccccccccccccccccccccccccccccccccccccccccccccccccccccccccccccccccccccccccccccccccccccccccccc"/>
      </g>
    </g>
  </g>
</svg>
